<?xml version="1.0" encoding="UTF-8"?><svg xmlns="http://www.w3.org/2000/svg" viewBox="0 0 300 300"><defs><style>.d{fill:none;}.e{fill:#231815;}</style></defs><g id="a"/><g id="b"><g id="c"><g><rect class="d" width="300" height="300"/><g><path class="e" d="M242.36,191.93c-9.61,.1-17.29,7.77-17.29,17.49s7.57,17.49,17.29,17.49,17.49-7.77,17.49-17.29-7.67-17.7-17.49-17.7Zm.1,30.79c-7.26,0-13.19-6.14-13.19-13.5s6.03-13.09,13.3-13.09c7.36,.1,13.4,6.03,13.3,13.19,0,7.26-6.14,13.4-13.4,13.4Z"/><path class="e" d="M226.29,96.56v40.61c0,10.33-.1,20.46,.1,30.69,.2,9.72,9.72,16.98,19.23,15.04,8.08-1.74,13.19-8.29,13.19-16.98v-63.62c-.72-12.17-11.66-20.87-23.63-18.82-1.84,.31-3.78,.92-5.22,1.33-1.84-2.56-3.38-5.32-5.42-7.36-7.36-7.26-18.62-7.16-25.98,.2-11.87,11.76-23.63,23.63-35.49,35.49-1.53,1.53-2.97,3.17-4.4,4.81-.82-.72-1.23-1.13-1.64-1.53-12.17-12.27-24.34-24.45-36.62-36.52-12.38-12.38-31.5-10.94-42.04,2.97-.51,.61-1.53,1.02-2.35,1.23-1.84,.41-3.89,.41-5.63,.92-20.56,5.73-27.21,30.48-11.97,45.72,6.24,6.55,12.89,12.79,19.23,19.23,11.35,11.46,22.71,22.81,33.96,34.27,7.36,7.47,9.21,18,4.81,27.11-.61,1.23-1.23,1.64-2.66,1.23-3.89-1.13-7.26-3.27-10.13-6.14-6.03-5.93-11.97-11.97-18-18-9.1-9.1-18-18.1-27.11-27.11-5.93-5.73-15.04-5.63-20.76,.1-5.73,5.63-5.73,14.83,0,20.76l6.24,6.24c10.94,10.84,21.68,21.99,32.83,32.73,11.25,10.74,29.05,9.61,39.28-2.05,1.02-1.13,2.05-1.53,3.58-1.53,11.56,.31,21.48-6.24,25.98-16.88,4.3-10.23,1.74-22.3-6.14-30.17l-15.85-15.85c-13.19-13.19-26.29-26.29-39.28-39.38-6.75-6.75-8.69-16.67-5.11-25.37,.51-1.33,1.13-1.74,2.56-1.43,4.71,.92,8.69,2.97,12.17,6.44,6.03,5.93,11.97,11.97,18,18,5.42,5.32,10.74,10.84,16.37,16.06,4.4,4.09,9.72,5.93,15.85,4.71,4.09-.82,7.36-3.07,10.23-5.93,1.43-1.33,2.66-2.86,4.09-4.4,1.84,1.94,3.38,3.58,4.91,5.11,8.08,8.08,19.64,8.08,27.62,0,11.05-11.05,21.99-22.09,33.24-33.34,.41-.51,1.02-.92,1.94-1.74v3.17Zm3.89,32.94c0-12.58,.1-25.16,0-37.64,0-1.74,.51-2.56,1.94-3.17,10.33-4.71,22.09,2.76,22.5,14.32,.2,4.81,.1,9.61,.1,14.52v48.69c0,6.24-3.58,11.05-9.31,12.48-7.57,1.94-15.24-3.78-15.24-11.56v-37.64Zm-119.98,89.6c-9.41,7.88-22.71,7.36-31.4-1.23-12.79-12.68-25.37-25.37-38.05-38.15-4.5-4.5-4.6-11.05-.2-15.34,4.3-4.3,10.74-4.09,15.34,.51,14.32,14.22,28.64,28.64,42.86,42.96,3.58,3.68,7.57,6.85,12.58,8.49,.31,.1,.51,.2,1.43,.72-1.13,.82-1.84,1.33-2.56,2.05Zm-28.33-100.24c17.7,17.8,35.39,35.59,53.19,53.29,3.78,3.78,6.85,8.08,7.88,13.6,2.66,14.73-7.98,26.8-21.07,27.82h-1.64c.82-3.68,1.84-6.96,2.15-10.23,.72-8.49-2.05-15.75-7.98-21.68-17.7-17.8-35.39-35.49-52.98-53.29-11.35-11.46-8.8-29.76,5.01-37.44,2.97-1.64,6.65-2.66,8.59-2.35-.51,2.45-1.23,5.01-1.43,7.47-.92,9,2.05,16.47,8.29,22.81Zm64.03,10.13c-3.78,1.74-7.57,1.74-11.15-.31-2.15-1.33-4.4-2.97-6.14-4.71-9.92-9.82-19.74-19.54-29.46-29.56-4.6-4.71-9.72-8.59-16.77-9.92,.82-.82,1.13-1.33,1.74-1.74,8.69-9,23.42-9.61,32.53-.82,12.79,12.58,25.37,25.37,37.95,38.15,.2,.2,.41,.51,.72,.92-2.97,2.97-5.52,6.24-9.41,7.98Zm78.96-40.3c-11.97,12.17-24.24,24.14-36.11,36.41-6.75,6.96-16.77,7.26-23.32-.1-1.13-1.43-2.66-2.56-4.4-4.09,3.58-3.58,6.96-6.75,10.23-9.82,9.92-10.02,19.84-19.95,29.87-29.87,1.53-1.64,3.68-3.07,5.73-3.89,7.57-2.86,16.16,1.43,18.51,9.21,.2,.61-.1,1.74-.51,2.15Z"/></g></g></g></g></svg>