<?xml version="1.0" encoding="UTF-8"?><svg xmlns="http://www.w3.org/2000/svg" viewBox="0 0 300 300"><defs><style>.d{fill:#fff;}.e{opacity:.07;}.f{fill:none;}</style></defs><g id="a"/><g id="b"><g id="c"><g><rect class="f" width="300" height="300"/><g class="e"><path class="d" d="M244.87,191.57c-9.53,.1-17.14,7.71-17.14,17.34s7.5,17.34,17.14,17.34,17.34-7.71,17.34-17.14-7.61-17.54-17.34-17.54Zm.1,30.52c-7.2,0-13.08-6.08-13.08-13.39s5.98-12.98,13.18-12.98c7.3,.1,13.28,5.98,13.18,13.08,0,7.2-6.08,13.28-13.28,13.28Z"/><path class="d" d="M228.94,97.02v40.26c0,10.24-.1,20.28,.1,30.42,.2,9.63,9.63,16.83,19.06,14.91,8.01-1.72,13.08-8.21,13.08-16.83v-63.08c-.71-12.07-11.56-20.69-23.42-18.66-1.83,.3-3.75,.91-5.17,1.32-1.83-2.54-3.35-5.27-5.37-7.3-7.3-7.2-18.46-7.1-25.76,.2-11.76,11.66-23.43,23.43-35.19,35.19-1.52,1.52-2.94,3.14-4.36,4.77-.81-.71-1.22-1.12-1.62-1.52-12.07-12.17-24.13-24.24-36.3-36.2-12.27-12.27-31.23-10.85-41.68,2.94-.51,.61-1.52,1.01-2.33,1.22-1.83,.41-3.85,.41-5.58,.91-20.38,5.68-26.97,30.22-11.86,45.33,6.19,6.49,12.78,12.68,19.06,19.06,11.26,11.36,22.51,22.61,33.67,33.97,7.3,7.4,9.13,17.85,4.77,26.87-.61,1.22-1.22,1.62-2.64,1.22-3.85-1.12-7.2-3.25-10.04-6.08-5.98-5.88-11.86-11.86-17.85-17.85-9.03-9.03-17.85-17.95-26.87-26.87-5.88-5.68-14.91-5.58-20.59,.1-5.68,5.58-5.68,14.7,0,20.59l6.19,6.19c10.85,10.75,21.5,21.8,32.55,32.45,11.15,10.65,28.8,9.53,38.94-2.03,1.01-1.12,2.03-1.52,3.55-1.52,11.46,.3,21.3-6.19,25.76-16.73,4.26-10.14,1.72-22.11-6.08-29.92l-15.72-15.72c-13.08-13.08-26.06-26.06-38.94-39.04-6.69-6.69-8.62-16.53-5.07-25.15,.51-1.32,1.12-1.72,2.54-1.42,4.66,.91,8.62,2.94,12.07,6.39,5.98,5.88,11.86,11.86,17.85,17.85,5.37,5.27,10.65,10.75,16.23,15.92,4.36,4.06,9.63,5.88,15.72,4.66,4.06-.81,7.3-3.04,10.14-5.88,1.42-1.32,2.64-2.84,4.06-4.36,1.83,1.93,3.35,3.55,4.87,5.07,8.01,8.01,19.47,8.01,27.38,0,10.95-10.95,21.8-21.9,32.96-33.06,.41-.51,1.01-.91,1.93-1.72v3.14Zm3.85,32.65c0-12.47,.1-24.95,0-37.32,0-1.72,.51-2.54,1.93-3.14,10.24-4.66,21.9,2.74,22.31,14.2,.2,4.77,.1,9.53,.1,14.4v48.27c0,6.19-3.55,10.95-9.23,12.37-7.5,1.93-15.11-3.75-15.11-11.46v-37.32Zm-118.95,88.83c-9.33,7.81-22.51,7.3-31.13-1.22-12.68-12.57-25.15-25.15-37.72-37.82-4.46-4.46-4.56-10.95-.2-15.21,4.26-4.26,10.65-4.06,15.21,.51,14.2,14.1,28.39,28.39,42.49,42.59,3.55,3.65,7.5,6.79,12.47,8.42,.3,.1,.51,.2,1.42,.71-1.12,.81-1.83,1.32-2.54,2.03Zm-28.09-99.38c17.54,17.64,35.09,35.29,52.73,52.83,3.75,3.75,6.79,8.01,7.81,13.49,2.64,14.6-7.91,26.57-20.89,27.58h-1.62c.81-3.65,1.83-6.9,2.13-10.14,.71-8.42-2.03-15.62-7.91-21.5-17.54-17.64-35.09-35.19-52.53-52.83-11.26-11.36-8.72-29.51,4.97-37.11,2.94-1.62,6.59-2.64,8.52-2.33-.51,2.43-1.22,4.97-1.42,7.4-.91,8.92,2.03,16.33,8.21,22.61Zm63.48,10.04c-3.75,1.72-7.5,1.72-11.05-.3-2.13-1.32-4.36-2.94-6.08-4.66-9.84-9.74-19.57-19.37-29.21-29.31-4.56-4.66-9.63-8.52-16.63-9.84,.81-.81,1.12-1.32,1.72-1.72,8.62-8.92,23.22-9.53,32.25-.81,12.68,12.47,25.15,25.15,37.62,37.82,.2,.2,.41,.51,.71,.91-2.94,2.94-5.48,6.19-9.33,7.91Zm78.29-39.95c-11.86,12.07-24.03,23.93-35.8,36.1-6.69,6.9-16.63,7.2-23.12-.1-1.12-1.42-2.64-2.54-4.36-4.06,3.55-3.55,6.9-6.69,10.14-9.74,9.84-9.94,19.67-19.77,29.61-29.61,1.52-1.62,3.65-3.04,5.68-3.85,7.5-2.84,16.02,1.42,18.35,9.13,.2,.61-.1,1.72-.51,2.13Z"/></g></g></g></g></svg>