<?xml version="1.0" encoding="UTF-8"?><svg xmlns="http://www.w3.org/2000/svg" viewBox="0 0 220 65"><defs><style>.d{fill:none;}.e{fill:#231815;}</style></defs><g id="a"/><g id="b"><g id="c"><g><rect class="d" width="220" height="65"/><path class="e" d="M50.37,38.44c-1.7,.02-3.05,1.37-3.05,3.09s1.34,3.09,3.05,3.09,3.09-1.37,3.09-3.05-1.35-3.12-3.09-3.12Zm.02,5.43c-1.28,0-2.33-1.08-2.33-2.38s1.06-2.31,2.35-2.31c1.3,.02,2.36,1.06,2.35,2.33,0,1.28-1.08,2.36-2.36,2.36Z"/><path class="e" d="M47.53,21.62v7.16c0,1.82-.02,3.61,.02,5.41,.04,1.71,1.71,3,3.39,2.65,1.43-.31,2.33-1.46,2.33-3v-11.22c-.13-2.15-2.06-3.68-4.17-3.32-.32,.05-.67,.16-.92,.23-.32-.45-.6-.94-.96-1.3-1.3-1.28-3.28-1.26-4.58,.04-2.09,2.08-4.17,4.17-6.26,6.26-.27,.27-.52,.56-.78,.85-.14-.13-.22-.2-.29-.27-2.15-2.17-4.29-4.31-6.46-6.44-2.18-2.18-5.56-1.93-7.42,.52-.09,.11-.27,.18-.42,.22-.32,.07-.69,.07-.99,.16-3.63,1.01-4.8,5.38-2.11,8.07,1.1,1.15,2.27,2.26,3.39,3.39,2,2.02,4.01,4.02,5.99,6.05,1.3,1.32,1.62,3.18,.85,4.78-.11,.22-.22,.29-.47,.22-.69-.2-1.28-.58-1.79-1.08-1.06-1.05-2.11-2.11-3.18-3.18-1.61-1.61-3.18-3.19-4.78-4.78-1.05-1.01-2.65-.99-3.66,.02-1.01,.99-1.01,2.62,0,3.66l1.1,1.1c1.93,1.91,3.83,3.88,5.79,5.77,1.98,1.89,5.12,1.7,6.93-.36,.18-.2,.36-.27,.63-.27,2.04,.05,3.79-1.1,4.58-2.98,.76-1.8,.31-3.93-1.08-5.32l-2.8-2.8c-2.33-2.33-4.64-4.64-6.93-6.95-1.19-1.19-1.53-2.94-.9-4.48,.09-.23,.2-.31,.45-.25,.83,.16,1.53,.52,2.15,1.14,1.06,1.05,2.11,2.11,3.18,3.18,.96,.94,1.89,1.91,2.89,2.83,.78,.72,1.71,1.05,2.8,.83,.72-.14,1.3-.54,1.8-1.05,.25-.23,.47-.51,.72-.78,.32,.34,.6,.63,.87,.9,1.43,1.43,3.46,1.43,4.87,0,1.95-1.95,3.88-3.9,5.86-5.88,.07-.09,.18-.16,.34-.31v.56Zm.69,5.81c0-2.22,.02-4.44,0-6.64,0-.31,.09-.45,.34-.56,1.82-.83,3.9,.49,3.97,2.53,.04,.85,.02,1.7,.02,2.56v8.59c0,1.1-.63,1.95-1.64,2.2-1.34,.34-2.69-.67-2.69-2.04v-6.64Zm-21.17,15.81c-1.66,1.39-4.01,1.3-5.54-.22-2.26-2.24-4.48-4.48-6.71-6.73-.79-.79-.81-1.95-.04-2.71,.76-.76,1.89-.72,2.71,.09,2.53,2.51,5.05,5.05,7.56,7.58,.63,.65,1.34,1.21,2.22,1.5,.05,.02,.09,.04,.25,.13-.2,.14-.32,.23-.45,.36Zm-5-17.68c3.12,3.14,6.24,6.28,9.38,9.4,.67,.67,1.21,1.43,1.39,2.4,.47,2.6-1.41,4.73-3.72,4.91h-.29c.14-.65,.32-1.23,.38-1.8,.13-1.5-.36-2.78-1.41-3.83-3.12-3.14-6.24-6.26-9.35-9.4-2-2.02-1.55-5.25,.88-6.6,.52-.29,1.17-.47,1.52-.42-.09,.43-.22,.88-.25,1.32-.16,1.59,.36,2.91,1.46,4.02Zm11.3,1.79c-.67,.31-1.34,.31-1.97-.05-.38-.23-.78-.52-1.08-.83-1.75-1.73-3.48-3.45-5.2-5.22-.81-.83-1.71-1.52-2.96-1.75,.14-.14,.2-.23,.31-.31,1.53-1.59,4.13-1.7,5.74-.14,2.26,2.22,4.48,4.48,6.69,6.73,.04,.04,.07,.09,.13,.16-.52,.52-.97,1.1-1.66,1.41Zm13.93-7.11c-2.11,2.15-4.28,4.26-6.37,6.42-1.19,1.23-2.96,1.28-4.11-.02-.2-.25-.47-.45-.78-.72,.63-.63,1.23-1.19,1.8-1.73,1.75-1.77,3.5-3.52,5.27-5.27,.27-.29,.65-.54,1.01-.69,1.34-.51,2.85,.25,3.27,1.62,.04,.11-.02,.31-.09,.38Z"/><path class="e" d="M111.98,36.8l.72-.75c.76,.75,1.82,1.23,2.94,1.23,1.43,0,2.31-.67,2.31-1.66,0-1.04-.79-1.37-1.79-1.78l-1.52-.62c-.97-.38-2.14-1.04-2.14-2.46s1.38-2.52,3.24-2.52c1.26,0,2.34,.49,3.05,1.19l-.63,.7c-.64-.57-1.42-.92-2.42-.92-1.22,0-2.03,.57-2.03,1.48,0,.99,.95,1.36,1.75,1.68l1.52,.59c1.2,.49,2.18,1.15,2.18,2.59,0,1.52-1.36,2.71-3.52,2.71-1.49,0-2.74-.55-3.64-1.44Z"/><path class="e" d="M123.12,29.33h-3.19v-.92h7.61v.92h-3.21v8.74h-1.2v-8.74Z"/><path class="e" d="M128.45,33.2c0-3.08,1.83-4.96,4.43-4.96s4.44,1.89,4.44,4.96-1.83,5.04-4.44,5.04-4.43-1.95-4.43-5.04Zm7.65,0c0-2.47-1.27-4-3.22-4s-3.21,1.53-3.21,4,1.28,4.08,3.21,4.08,3.22-1.6,3.22-4.08Z"/><path class="e" d="M145.41,38.07l-2.62-4.17h-1.96v4.17h-1.19v-9.66h3.21c2.13,0,3.62,.7,3.62,2.68,0,1.52-.96,2.4-2.44,2.71l2.71,4.28h-1.33Zm-4.58-5.07h1.83c1.69,0,2.62-.62,2.62-1.91s-.93-1.79-2.62-1.79h-1.83v3.71Z"/><path class="e" d="M148.62,28.4h5.97v.92h-4.79v3.18h4.03v.92h-4.03v3.71h4.94v.92h-6.13v-9.66Z"/><path class="e" d="M168.17,35.02h-3.91l-1.08,3.05h-1.19l3.58-9.66h1.3l3.6,9.66h-1.26l-1.05-3.05Zm-.3-.86l-.54-1.57c-.4-1.1-.73-2.14-1.09-3.27h-.06c-.34,1.15-.69,2.18-1.08,3.27l-.54,1.57h3.31Z"/><path class="e" d="M172,28.4h2.58c3.22,0,4.9,1.75,4.9,4.79s-1.68,4.87-4.86,4.87h-2.62v-9.66Zm2.48,8.76c2.55,0,3.78-1.5,3.78-3.97s-1.23-3.89-3.78-3.89h-1.29v7.87h1.29Z"/><path class="e" d="M181.79,28.4h1.46l2.06,5.28c.26,.69,.5,1.37,.76,2.06h.07c.26-.69,.49-1.37,.73-2.06l2.05-5.28h1.46v9.66h-1.1v-5.58c0-.82,.09-1.95,.14-2.8h-.06l-.83,2.19-2.05,5.2h-.82l-2.06-5.2-.83-2.19h-.06c.06,.84,.14,1.98,.14,2.8v5.58h-1.07v-9.66Z"/><path class="e" d="M193.32,28.4h1.19v9.66h-1.19v-9.66Z"/><path class="e" d="M197.43,28.4h1.22l3.97,6.26,1.13,1.98h.07c-.07-.96-.16-2.02-.16-3.01v-5.23h1.13v9.66h-1.23l-3.94-6.26-1.15-1.98h-.07c.06,.96,.14,1.94,.14,2.94v5.29h-1.12v-9.66Z"/><path class="e" d="M65.54,24.94h2.56v10.54h6.26v2.41h-8.82v-12.96Z"/><path class="e" d="M85.78,36.83l1.49-1.79c.98,.64,1.87,.97,2.71,.97s1.26-.27,1.26-.72c0-.55-1.04-.81-2.13-1.18-1.28-.43-2.79-1.18-2.79-2.69,0-1.74,1.66-2.91,4.15-2.91,1.7,0,2.9,.58,3.85,1.18l-1.51,1.71c-.75-.45-1.51-.77-2.22-.77-.75,0-1.13,.23-1.13,.66,0,.55,.98,.76,2.09,1.09,1.34,.43,2.83,1.09,2.83,2.75s-1.55,2.99-4.47,2.99c-1.39,0-3.05-.51-4.13-1.29Z"/><path class="e" d="M101.07,28.51c.98,0,1.73,.27,2.26,.81,.53,.54,.79,1.35,.79,2.42v6.18h-2.45v-5.67c0-.68-.09-1.19-.28-1.54-.19-.35-.53-.52-1.03-.52-.67,0-1.14,.24-1.41,.72-.27,.48-.41,1.29-.41,2.42v4.58h-2.45v-9.24h1.95l.26,1.21h.15c.54-.92,1.42-1.38,2.63-1.38Z"/><polygon class="e" points="74.18 28.73 78.56 37.65 75.24 44.15 78.18 44.15 85.72 28.73 83.14 28.73 79.89 35.05 76.88 28.73 74.18 28.73"/></g></g></g></svg>